<?xml version="1.0" encoding="UTF-8" standalone="no"?>
<svg
   width="500"
   zoomAndPan="magnify"
   viewBox="0 0 375 374.99999"
   height="500"
   preserveAspectRatio="xMidYMid"
   version="1.0"
   id="svg50"
   xmlns="http://www.w3.org/2000/svg"
   xmlns:svg="http://www.w3.org/2000/svg">
  <defs
     id="defs3">
    <clipPath
       id="0a2ff9aff9">
      <rect
         x="0"
         width="375"
         y="0"
         height="66"
         id="rect1" />
    </clipPath>
    <clipPath
       id="882032b8ff">
      <path
         d="m 35,178 h 285 v 63 H 35 Z m 0,0"
         clip-rule="nonzero"
         id="path1" />
    </clipPath>
    <clipPath
       id="9e3a5c55d1">
      <path
         d="M 168.08203,39.855469 331.92969,196.24219 199.36328,335.13281 35.515625,178.74609 Z m 0,0"
         clip-rule="nonzero"
         id="path2" />
    </clipPath>
    <clipPath
       id="a42965f60e">
      <path
         d="M 168.08203,39.855469 331.92969,196.24219 199.36328,335.13281 35.515625,178.74609 Z m 0,0"
         clip-rule="nonzero"
         id="path3" />
    </clipPath>
  </defs>
  <g
     id="g54">
    <g
       id="g53">
      <g
         id="g52">
        <rect
           x="-37.5"
           width="450"
           fill="#ffffff"
           y="-37.5"
           height="450"
           fill-opacity="1"
           id="rect3" />
        <rect
           x="-38.141941"
           width="450"
           fill="#ffffff"
           y="-37.5"
           height="450"
           fill-opacity="1"
           id="rect4" />
        <g
           transform="translate(0,127)"
           id="g47">
          <g
             clip-path="url(#0a2ff9aff9)"
             id="g46">
            <g
               fill="#1f2d5c"
               fill-opacity="1"
               id="g6">
              <g
                 transform="translate(4.5e-6,52.827168)"
                 id="g5">
                <g
                   id="g4">
                  <path
                     d="m 28.484375,-26.203125 c -0.210937,-0.800781 -0.527344,-1.507813 -0.953125,-2.125 -0.417969,-0.613281 -0.933594,-1.132813 -1.546875,-1.5625 -0.605469,-0.4375 -1.296875,-0.765625 -2.078125,-0.984375 -0.78125,-0.21875 -1.640625,-0.328125 -2.578125,-0.328125 -1.898437,0 -3.53125,0.460937 -4.90625,1.375 -1.375,0.90625 -2.4375,2.234375 -3.1875,3.984375 -0.742187,1.742188 -1.109375,3.851562 -1.109375,6.328125 0,2.5 0.359375,4.632813 1.078125,6.390625 0.726563,1.761719 1.773437,3.105469 3.140625,4.03125 1.363281,0.917969 3.023438,1.375 4.984375,1.375 1.71875,0 3.175781,-0.28125 4.375,-0.84375 1.195313,-0.5625 2.101563,-1.363281 2.71875,-2.40625 0.625,-1.039062 0.9375,-2.265625 0.9375,-3.671875 l 1.75,0.21875 h -9.46875 v -6.859375 h 16.78125 v 5.140625 c 0,3.492187 -0.742187,6.480469 -2.21875,8.96875 -1.46875,2.480469 -3.496094,4.386719 -6.078125,5.71875 -2.574219,1.324219 -5.53125,1.984375 -8.875,1.984375 -3.71875,0 -6.984375,-0.800781 -9.796875,-2.40625 C 8.640625,-3.488281 6.445312,-5.785156 4.875,-8.765625 3.3125,-11.753906 2.53125,-15.300781 2.53125,-19.40625 c 0,-3.1875 0.472656,-6.019531 1.421875,-8.5 0.945313,-2.476562 2.269531,-4.578125 3.96875,-6.296875 1.707031,-1.726563 3.6875,-3.035156 5.9375,-3.921875 2.25,-0.882812 4.671875,-1.328125 7.265625,-1.328125 2.257812,0 4.359375,0.324219 6.296875,0.96875 1.945313,0.648437 3.671875,1.558594 5.171875,2.734375 1.507812,1.179688 2.734375,2.578125 3.671875,4.203125 0.9375,1.625 1.519531,3.40625 1.75,5.34375 z m 0,0"
                     id="path4" />
                </g>
              </g>
            </g>
            <g
               fill="#1f2d5c"
               fill-opacity="1"
               id="g9">
              <g
                 transform="translate(41.033338,52.827168)"
                 id="g8">
                <g
                   id="g7">
                  <path
                     d="m 2.953125,0 v -29.1875 h 9.015625 v 5.3125 h 0.3125 c 0.53125,-1.914062 1.394531,-3.347656 2.59375,-4.296875 1.207031,-0.945313 2.609375,-1.421875 4.203125,-1.421875 0.425781,0 0.867187,0.03125 1.328125,0.09375 0.457031,0.05469 0.882812,0.136719 1.28125,0.25 v 8.078125 c -0.449219,-0.15625 -1.03125,-0.273437 -1.75,-0.359375 -0.710938,-0.09375 -1.34375,-0.140625 -1.90625,-0.140625 -1.105469,0 -2.101562,0.246094 -2.984375,0.734375 -0.875,0.492188 -1.5625,1.171875 -2.0625,2.046875 -0.5,0.867187 -0.75,1.882813 -0.75,3.046875 V 0 Z m 0,0"
                     id="path6" />
                </g>
              </g>
            </g>
            <g
               fill="#1f2d5c"
               fill-opacity="1"
               id="g12">
              <g
                 transform="translate(62.053616,52.827168)"
                 id="g11">
                <g
                   id="g10">
                  <path
                     d="m 16.578125,0.546875 c -3.074219,0 -5.710937,-0.6289062 -7.90625,-1.890625 C 6.472656,-2.601562 4.78125,-4.363281 3.59375,-6.625 2.414062,-8.882812 1.828125,-11.507812 1.828125,-14.5 c 0,-3 0.585937,-5.628906 1.765625,-7.890625 1.1875,-2.257813 2.878906,-4.019531 5.078125,-5.28125 2.195313,-1.269531 4.832031,-1.90625 7.90625,-1.90625 3.0625,0 5.691406,0.636719 7.890625,1.90625 2.195312,1.261719 3.882812,3.023437 5.0625,5.28125 1.1875,2.261719 1.78125,4.890625 1.78125,7.890625 0,2.992188 -0.59375,5.617188 -1.78125,7.875 -1.179688,2.261719 -2.867188,4.023438 -5.0625,5.28125 -2.199219,1.2617188 -4.828125,1.890625 -7.890625,1.890625 z M 16.625,-6.46875 c 1.113281,0 2.054688,-0.335938 2.828125,-1.015625 0.78125,-0.6875 1.375,-1.632813 1.78125,-2.84375 0.414063,-1.21875 0.625,-2.628906 0.625,-4.234375 0,-1.613281 -0.210937,-3.03125 -0.625,-4.25 -0.40625,-1.21875 -1,-2.164062 -1.78125,-2.84375 -0.773437,-0.6875 -1.714844,-1.03125 -2.828125,-1.03125 -1.148438,0 -2.117188,0.34375 -2.90625,1.03125 -0.792969,0.679688 -1.398438,1.625 -1.8125,2.84375 -0.417969,1.21875 -0.625,2.636719 -0.625,4.25 0,1.605469 0.207031,3.015625 0.625,4.234375 0.414062,1.210937 1.019531,2.15625 1.8125,2.84375 0.789062,0.679687 1.757812,1.015625 2.90625,1.015625 z m 0,0"
                     id="path9" />
                </g>
              </g>
            </g>
            <g
               fill="#1f2d5c"
               fill-opacity="1"
               id="g15">
              <g
                 transform="translate(94.57239,52.827168)"
                 id="g14">
                <g
                   id="g13">
                  <path
                     d="M 8.40625,0 0.796875,-29.1875 H 10.125 l 3.9375,18.703125 h 0.25 L 18.53125,-29.1875 H 27.625 l 4.34375,18.5625 h 0.25 l 3.8125,-18.5625 h 9.328125 L 37.734375,0 h -9.9375 l -4.5625,-17.015625 h -0.3125 L 18.359375,0 Z m 0,0"
                     id="path12" />
                </g>
              </g>
            </g>
            <g
               fill="#1f2d5c"
               fill-opacity="1"
               id="g18">
              <g
                 transform="translate(140.73727,52.827168)"
                 id="g17">
                <g
                   id="g16" />
              </g>
            </g>
            <g
               fill="#1f2d5c"
               fill-opacity="1"
               id="g21">
              <g
                 transform="translate(152.25474,52.827168)"
                 id="g20">
                <g
                   id="g19">
                  <path
                     d="m 19.421875,-29.1875 v 6.84375 H 1 v -6.84375 z m -14.5625,-7 h 9.296875 v 27.015625 c 0,0.5625 0.08594,1.023437 0.265625,1.375 0.1875,0.34375 0.457031,0.589844 0.8125,0.734375 0.351563,0.148438 0.78125,0.21875 1.28125,0.21875 0.351563,0 0.726563,-0.03125 1.125,-0.09375 0.40625,-0.070312 0.707031,-0.132812 0.90625,-0.1875 l 1.40625,6.703125 c -0.4375,0.125 -1.0625,0.28125 -1.875,0.46875 -0.804687,0.195313 -1.761719,0.320313 -2.875,0.375 -2.179687,0.09375 -4.042969,-0.164063 -5.59375,-0.765625 -1.554687,-0.613281 -2.742187,-1.570312 -3.5625,-2.875 -0.8125,-1.3125 -1.210937,-2.957031 -1.1875,-4.9375 z m 0,0"
                     id="path18" />
                </g>
              </g>
            </g>
            <g
               fill="#1f2d5c"
               fill-opacity="1"
               id="g24">
              <g
                 transform="translate(173.18003,52.827168)"
                 id="g23">
                <g
                   id="g22">
                  <path
                     d="m 16.578125,0.546875 c -3.074219,0 -5.710937,-0.6289062 -7.90625,-1.890625 C 6.472656,-2.601562 4.78125,-4.363281 3.59375,-6.625 2.414062,-8.882812 1.828125,-11.507812 1.828125,-14.5 c 0,-3 0.585937,-5.628906 1.765625,-7.890625 1.1875,-2.257813 2.878906,-4.019531 5.078125,-5.28125 2.195313,-1.269531 4.832031,-1.90625 7.90625,-1.90625 3.0625,0 5.691406,0.636719 7.890625,1.90625 2.195312,1.261719 3.882812,3.023437 5.0625,5.28125 1.1875,2.261719 1.78125,4.890625 1.78125,7.890625 0,2.992188 -0.59375,5.617188 -1.78125,7.875 -1.179688,2.261719 -2.867188,4.023438 -5.0625,5.28125 -2.199219,1.2617188 -4.828125,1.890625 -7.890625,1.890625 z M 16.625,-6.46875 c 1.113281,0 2.054688,-0.335938 2.828125,-1.015625 0.78125,-0.6875 1.375,-1.632813 1.78125,-2.84375 0.414063,-1.21875 0.625,-2.628906 0.625,-4.234375 0,-1.613281 -0.210937,-3.03125 -0.625,-4.25 -0.40625,-1.21875 -1,-2.164062 -1.78125,-2.84375 -0.773437,-0.6875 -1.714844,-1.03125 -2.828125,-1.03125 -1.148438,0 -2.117188,0.34375 -2.90625,1.03125 -0.792969,0.679688 -1.398438,1.625 -1.8125,2.84375 -0.417969,1.21875 -0.625,2.636719 -0.625,4.25 0,1.605469 0.207031,3.015625 0.625,4.234375 0.414062,1.210937 1.019531,2.15625 1.8125,2.84375 0.789062,0.679687 1.757812,1.015625 2.90625,1.015625 z m 0,0"
                     id="path21" />
                </g>
              </g>
            </g>
            <g
               fill="#1f2d5c"
               fill-opacity="1"
               id="g27">
              <g
                 transform="translate(206.326,52.827168)"
                 id="g26">
                <g
                   id="g25" />
              </g>
            </g>
            <g
               fill="#1f2d5c"
               fill-opacity="1"
               id="g30">
              <g
                 transform="translate(217.84346,52.827168)"
                 id="g29">
                <g
                   id="g28">
                  <path
                     d="m 2.953125,0 v -38.921875 h 16.0625 c 2.914063,0 5.4375,0.570313 7.5625,1.703125 2.125,1.136719 3.757813,2.714844 4.90625,4.734375 1.15625,2.023437 1.734375,4.367187 1.734375,7.03125 0,2.6875 -0.589844,5.039063 -1.765625,7.046875 -1.167969,2.011719 -2.835937,3.570312 -5,4.671875 -2.167969,1.09375 -4.742187,1.640625 -7.71875,1.640625 H 8.8125 V -19.5 h 8.171875 c 1.425781,0 2.613281,-0.242188 3.5625,-0.734375 0.957031,-0.5 1.679687,-1.191406 2.171875,-2.078125 0.5,-0.894531 0.75,-1.941406 0.75,-3.140625 0,-1.195313 -0.25,-2.234375 -0.75,-3.109375 -0.492188,-0.882812 -1.21875,-1.566406 -2.1875,-2.046875 -0.960938,-0.488281 -2.140625,-0.734375 -3.546875,-0.734375 h -4.625 V 0 Z m 0,0"
                     id="path27" />
                </g>
              </g>
            </g>
            <g
               fill="#1f2d5c"
               fill-opacity="1"
               id="g33">
              <g
                 transform="translate(252.73795,52.827168)"
                 id="g32">
                <g
                   id="g31">
                  <path
                     d="m 2.953125,0 v -29.1875 h 9.015625 v 5.3125 h 0.3125 c 0.53125,-1.914062 1.394531,-3.347656 2.59375,-4.296875 1.207031,-0.945313 2.609375,-1.421875 4.203125,-1.421875 0.425781,0 0.867187,0.03125 1.328125,0.09375 0.457031,0.05469 0.882812,0.136719 1.28125,0.25 v 8.078125 c -0.449219,-0.15625 -1.03125,-0.273437 -1.75,-0.359375 -0.710938,-0.09375 -1.34375,-0.140625 -1.90625,-0.140625 -1.105469,0 -2.101562,0.246094 -2.984375,0.734375 -0.875,0.492188 -1.5625,1.171875 -2.0625,2.046875 -0.5,0.867187 -0.75,1.882813 -0.75,3.046875 V 0 Z m 0,0"
                     id="path30" />
                </g>
              </g>
            </g>
            <g
               fill="#1f2d5c"
               fill-opacity="1"
               id="g36">
              <g
                 transform="translate(275.27873,52.827168)"
                 id="g35">
                <g
                   id="g34">
                  <path
                     d="m 2.953125,0 v -29.1875 h 9.28125 V 0 Z m 4.65625,-32.59375 c -1.3125,0 -2.4375,-0.429688 -3.375,-1.296875 -0.9375,-0.875 -1.40625,-1.921875 -1.40625,-3.140625 0,-1.21875 0.46875,-2.257812 1.40625,-3.125 0.9375,-0.875 2.0625,-1.3125 3.375,-1.3125 1.3125,0 2.429687,0.4375 3.359375,1.3125 0.9375,0.867188 1.40625,1.90625 1.40625,3.125 0,1.21875 -0.46875,2.265625 -1.40625,3.140625 -0.929688,0.867187 -2.046875,1.296875 -3.359375,1.296875 z m 0,0"
                     id="path33" />
                </g>
              </g>
            </g>
            <g
               fill="#1f2d5c"
               fill-opacity="1"
               id="g39">
              <g
                 transform="translate(290.4643,52.827168)"
                 id="g38">
                <g
                   id="g37">
                  <path
                     d="m 2.953125,0 v -29.1875 h 8.828125 v 5.359375 h 0.328125 c 0.601563,-1.769531 1.625,-3.171875 3.0625,-4.203125 1.445313,-1.03125 3.175781,-1.546875 5.1875,-1.546875 2.019531,0 3.753906,0.523437 5.203125,1.5625 1.445312,1.042969 2.363281,2.4375 2.75,4.1875 h 0.3125 c 0.539062,-1.738281 1.601562,-3.128906 3.1875,-4.171875 1.582031,-1.050781 3.453125,-1.578125 5.609375,-1.578125 2.757813,0 5,0.886719 6.71875,2.65625 1.726563,1.773437 2.59375,4.195313 2.59375,7.265625 V 0 H 37.4375 v -17.515625 c 0,-1.457031 -0.375,-2.566406 -1.125,-3.328125 C 35.570312,-21.613281 34.601562,-22 33.40625,-22 c -1.28125,0 -2.289062,0.417969 -3.015625,1.25 -0.730469,0.824219 -1.09375,1.933594 -1.09375,3.328125 V 0 H 20.375 v -17.609375 c 0,-1.363281 -0.371094,-2.4375 -1.109375,-3.21875 C 18.535156,-21.609375 17.566406,-22 16.359375,-22 c -0.8125,0 -1.53125,0.195312 -2.15625,0.578125 -0.617187,0.386719 -1.101563,0.933594 -1.453125,1.640625 -0.34375,0.710938 -0.515625,1.542969 -0.515625,2.5 V 0 Z m 0,0"
                     id="path36" />
                </g>
              </g>
            </g>
            <g
               fill="#1f2d5c"
               fill-opacity="1"
               id="g42">
              <g
                 transform="translate(340.0312,52.827168)"
                 id="g41">
                <g
                   id="g40">
                  <path
                     d="m 16.59375,0.546875 c -3.054688,0 -5.6875,-0.6015625 -7.90625,-1.8125 -2.210938,-1.207031 -3.90625,-2.9375 -5.09375,-5.1875 -1.179688,-2.25 -1.765625,-4.925781 -1.765625,-8.03125 0,-3.007813 0.59375,-5.644531 1.78125,-7.90625 1.1875,-2.257813 2.863281,-4.019531 5.03125,-5.28125 2.164063,-1.269531 4.722656,-1.90625 7.671875,-1.90625 2.070312,0 3.96875,0.328125 5.6875,0.984375 1.726562,0.648438 3.21875,1.605469 4.46875,2.875 1.257812,1.261719 2.234375,2.820312 2.921875,4.671875 0.695313,1.855469 1.046875,3.980469 1.046875,6.375 v 2.3125 H 5.078125 V -17.75 h 16.71875 c -0.01172,-0.988281 -0.246094,-1.867188 -0.703125,-2.640625 -0.460938,-0.769531 -1.085938,-1.375 -1.875,-1.8125 -0.792969,-0.4375 -1.699219,-0.65625 -2.71875,-0.65625 -1.042969,0 -1.976562,0.234375 -2.796875,0.703125 -0.824219,0.460938 -1.480469,1.085938 -1.96875,1.875 -0.480469,0.792969 -0.730469,1.6875 -0.75,2.6875 v 5.484375 c 0,1.199219 0.234375,2.246094 0.703125,3.140625 0.46875,0.886719 1.128906,1.578125 1.984375,2.078125 0.863281,0.492187 1.894531,0.734375 3.09375,0.734375 0.820313,0 1.566406,-0.113281 2.234375,-0.34375 0.675781,-0.226562 1.253906,-0.5625 1.734375,-1 0.476563,-0.445312 0.835937,-0.992188 1.078125,-1.640625 l 8.53125,0.25 c -0.355469,1.90625 -1.132812,3.570313 -2.328125,4.984375 -1.199219,1.417969 -2.765625,2.515625 -4.703125,3.296875 -1.9375,0.769531 -4.179688,1.15625 -6.71875,1.15625 z m 0,0"
                     id="path39" />
                </g>
              </g>
            </g>
            <g
               fill="#1f2d5c"
               fill-opacity="1"
               id="g45">
              <g
                 transform="translate(372.30471,52.827168)"
                 id="g44">
                <g
                   id="g43" />
              </g>
            </g>
          </g>
          <circle
             id="path52"
             style="fill:#000000;stroke:#000000;stroke-width:0.75"
             cx="304.2796"
             cy="27.70756"
             r="0.24237864" />
        </g>
        <g
           clip-path="url(#882032b8ff)"
           id="g50">
          <g
             clip-path="url(#9e3a5c55d1)"
             id="g49">
            <g
               clip-path="url(#a42965f60e)"
               id="g48">
              <path
                 fill="#23c9a5"
                 d="m 319.09766,183.875 c -4.19141,-3.94141 -39.04688,2.24609 -39.60157,6.15234 -0.38281,2.67578 8.125,4.01563 15.28516,4.67188 -8.85547,6.38672 -20.375,13.76562 -34.70313,20.5 -19.16796,9.00781 -41.35546,15.89453 -65.65625,18.46094 -29.82031,2.85156 -58.96875,-1.375 -84.93749,-10.26954 -34.76563,-11.90625 -59.136724,-30.41015 -73.746099,-44.66015 14.582031,14.22265 38.277344,33.53906 72.898439,46.97656 25.85156,10.03125 55.3789,15.74219 86.23828,14.17969 25.1875,-1.03516 48.75391,-6.67578 69.41406,-15.03125 15.83985,-6.40625 28.66797,-13.87891 38.33203,-20.56641 -1.21875,7.44531 -2.2539,16.83985 0.24219,17.13672 4.14453,0.48828 20.21484,-32.28125 16.41016,-37.35547 -0.0508,-0.0664 -0.10938,-0.13281 -0.17578,-0.19531 z m 0,0"
                 fill-opacity="1"
                 fill-rule="nonzero"
                 id="path47"
                 style="display:inline" />
            </g>
          </g>
        </g>
      </g>
    </g>
  </g>
</svg>
